<?xml version="1.0" encoding="iso-8859-1"?>
<!-- Generator: Adobe Illustrator 19.0.0, SVG Export Plug-In . SVG Version: 6.00 Build 0)  -->
<svg version="1.1" id="Layer_1" xmlns="http://www.w3.org/2000/svg" xmlns:xlink="http://www.w3.org/1999/xlink" x="0px" y="0px"
	 viewBox="0 0 291.783 291.783" style="enable-background:new 0 0 291.783 291.783;" xml:space="preserve">
<g>
	<path style="fill:#F1CD71;" d="M209.706,59.256H27.353c-5.042,0-9.118,4.085-9.118,9.118v18.235c0,5.033,4.076,9.118,9.118,9.118
		h112.785C157.453,84.229,178.223,77.5,200.57,77.5c6.236,0,12.309,0.638,18.254,1.641V68.373
		C218.824,63.331,214.748,59.256,209.706,59.256z M246.176,13.667H63.824c-5.042,0-9.118,4.085-9.118,9.118V41.02
		c0,5.042,4.076,9.118,9.118,9.118h182.353c5.042,0,9.118-4.076,9.118-9.118V22.785C255.294,17.743,251.219,13.667,246.176,13.667z
		 M27.353,141.314h73.826c6.446-14.014,15.746-26.405,27.18-36.471H27.353c-5.042,0-9.118,4.085-9.118,9.118v18.235
		C18.235,137.23,22.311,141.314,27.353,141.314z M105.856,241.609H9.118c-5.042,0-9.118,4.066-9.118,9.118v18.235
		c0,5.042,4.076,9.118,9.118,9.118h130.92C126.006,268.752,114.326,256.233,105.856,241.609z M27.353,186.903h63.769
		c0-12.801,2.316-25.055,6.364-36.471H27.353c-5.042,0-9.118,4.066-9.118,9.118v18.235
		C18.235,182.827,22.311,186.903,27.353,186.903z M9.118,232.491h92.043c-5.179-11.269-8.516-23.542-9.574-36.471H9.118
		c-5.042,0-9.118,4.066-9.118,9.118v18.235C0,228.415,4.076,232.491,9.118,232.491z"/>
	<path style="fill:#EFC75E;" d="M200.57,95.735c50.366,0,91.213,40.829,91.213,91.186c0,50.366-40.838,91.195-91.213,91.195
		s-91.204-40.829-91.204-91.195S150.204,95.735,200.57,95.735z"/>
	<path style="fill:#CBA950;" d="M209.688,181.459c-4.094-1.65-19.138-3.902-19.138-10.148c0-4.632,5.626-5.954,8.999-5.954
		c3.064,0,6.747,0.939,8.689,2.79c1.231,1.121,1.732,1.942,2.143,3.082c0.511,1.331,0.821,2.763,2.763,2.763h10.029
		c2.352,0,2.954-0.41,2.954-2.863c0-10.558-8.689-16.512-18.6-18.554v-8.206c0-1.842-0.611-2.972-2.963-2.972h-7.978
		c-2.352,0-2.954,1.131-2.954,2.972v7.887c-10.631,1.96-19.539,8.315-19.539,19.813c0,13.02,9.51,17.123,19.84,20.396
		c8.68,2.763,17.779,2.863,17.779,8.616c0,5.735-4.495,6.966-10.02,6.966c-3.784,0-7.978-0.93-10.029-3.383
		c-1.331-1.532-1.833-2.854-1.942-4.203c-0.191-2.553-1.331-2.854-3.684-2.854h-9.92c-2.352,0-2.954,0.529-2.954,2.854
		c0,11.698,9.811,18.782,20.442,21.044v7.996c0,1.851,0.611,2.972,2.972,2.972h7.96c2.371,0,2.972-1.121,2.972-2.972v-7.786
		c12.054-1.732,20.332-8.707,20.332-21.025C227.877,186.693,217.046,183.739,209.688,181.459z"/>
	<path style="fill:#CBA950;" d="M200.488,95.735c-50.357,0-91.195,40.829-91.195,91.186c0,50.366,40.838,91.195,91.195,91.195
		c50.375,0,91.213-40.829,91.213-91.195S250.881,95.735,200.488,95.735z M200.488,268.998c-45.251,0-82.077-36.817-82.077-82.077
		c0-45.251,36.835-82.068,82.077-82.068c45.269,0,82.095,36.817,82.095,82.068C282.583,232.181,245.757,268.998,200.488,268.998z"/>
	<g>
		<rect x="36.471" y="59.256" style="fill:#CBA950;" width="18.235" height="36.471"/>
		<rect x="36.471" y="104.844" style="fill:#CBA950;" width="18.235" height="36.471"/>
		<rect x="36.471" y="150.432" style="fill:#CBA950;" width="18.235" height="36.471"/>
		<rect x="72.941" y="104.844" style="fill:#CBA950;" width="18.235" height="36.471"/>
		<rect x="54.706" y="196.02" style="fill:#CBA950;" width="18.235" height="36.471"/>
		<rect x="218.824" y="13.667" style="fill:#CBA950;" width="18.235" height="36.471"/>
		<rect x="109.412" y="59.256" style="fill:#CBA950;" width="18.235" height="36.471"/>
		<path style="fill:#CBA950;" d="M109.412,104.844v21.964c5.179-7.841,11.251-15.017,18.235-21.271v-0.693H109.412z M91.176,232.491
			h9.984c-5.179-11.269-8.516-23.542-9.574-36.471h-0.41V232.491z M72.941,150.432v36.471h18.181l0.055-1.204v-35.267
			L72.941,150.432L72.941,150.432z"/>
		<rect x="72.941" y="59.256" style="fill:#CBA950;" width="18.235" height="36.471"/>
		<rect x="182.353" y="13.667" style="fill:#CBA950;" width="18.235" height="36.471"/>
		<rect x="18.235" y="196.02" style="fill:#CBA950;" width="18.235" height="36.471"/>
		<rect x="18.235" y="241.609" style="fill:#CBA950;" width="18.235" height="36.471"/>
		<path style="fill:#CBA950;" d="M105.856,241.609h-14.68v36.471h18.235v-31.064C108.226,245.219,106.941,243.478,105.856,241.609z"
			/>
		<rect x="54.706" y="241.609" style="fill:#CBA950;" width="18.235" height="36.471"/>
		<path style="fill:#CBA950;" d="M200.588,77.5V59.265h-18.235v19.813c5.917-1.003,11.99-1.568,18.217-1.568L200.588,77.5z"/>
		<rect x="109.412" y="13.667" style="fill:#CBA950;" width="18.235" height="36.471"/>
		<rect x="72.941" y="13.667" style="fill:#CBA950;" width="18.235" height="36.471"/>
		<rect x="145.882" y="13.667" style="fill:#CBA950;" width="18.235" height="36.471"/>
		<path style="fill:#CBA950;" d="M164.118,83.819V59.256h-18.235v32.942C151.645,88.861,157.754,86.071,164.118,83.819z"/>
	</g>
</g>
<g>
</g>
<g>
</g>
<g>
</g>
<g>
</g>
<g>
</g>
<g>
</g>
<g>
</g>
<g>
</g>
<g>
</g>
<g>
</g>
<g>
</g>
<g>
</g>
<g>
</g>
<g>
</g>
<g>
</g>
</svg>
